<svg viewBox="0 0 32 32" xmlns="http://www.w3.org/2000/svg">
  <circle cx="16" cy="16" r="16" fill="#2775CA"/>
  <path d="M20.5 18.2c0-2-1.2-2.7-3.6-3-.6-.1-1.2-.2-1.7-.3-1.4-.3-1.8-.7-1.8-1.4s.6-1.2 1.8-1.2c1 0 1.6.3 1.9 1.1.1.2.2.3.4.3h.9c.2 0 .4-.2.4-.4v-.1c-.3-1.2-1.1-2-2.4-2.2v-1.3c0-.2-.2-.4-.4-.4h-.8c-.2 0-.4.2-.4.4V11c-1.7.2-2.8 1.3-2.8 2.7 0 1.9 1.2 2.6 3.6 2.9.6.1 1.1.2 1.6.3 1.1.3 1.6.7 1.6 1.5s-.8 1.4-1.9 1.4c-1.5 0-2-.6-2.2-1.4-.1-.2-.2-.3-.4-.3h-1c-.2 0-.4.2-.4.4v.1c.3 1.4 1.2 2.3 2.9 2.6V22c0 .2.2.4.4.4h.8c.2 0 .4-.2.4-.4v-1.3c1.8-.3 2.9-1.3 2.9-2.8z" fill="white"/>
</svg>
